<svg width="461" height="461" viewBox="0 0 461 461" fill="none" xmlns="http://www.w3.org/2000/svg">
<path d="M231.162 282.25C194.951 282.25 165.49 252.789 165.49 216.579C165.49 180.368 194.951 150.907 231.162 150.907C267.373 150.907 296.834 180.368 296.834 216.579C296.834 252.789 267.373 282.25 231.162 282.25ZM231.162 172.797C207.027 172.797 187.381 192.444 187.381 216.579C187.381 240.713 207.027 260.36 231.162 260.36C255.296 260.36 274.943 240.713 274.943 216.579C274.943 192.444 255.296 172.797 231.162 172.797ZM406.505 274.99L391.2 259.338C360.097 289.766 307.086 326.031 231.162 326.031C175.177 326.031 124.865 306.877 81.6675 269.098C57.3142 247.809 42.1733 226.247 36.0074 216.579C50.3822 194.104 113.682 107.126 231.18 107.126C287.165 107.126 337.477 126.28 380.674 164.059C413.255 192.554 429.381 221.54 429.527 221.814L448.754 211.325C448.043 210.03 431.005 179.164 395.761 148.152C363.107 119.457 308.071 85.2352 231.162 85.2352C154.253 85.2352 99.2164 119.457 66.5995 148.171C31.3556 179.182 14.2993 210.048 13.6061 211.343C11.8183 214.608 11.8183 218.567 13.6061 221.832C14.3175 223.128 31.3556 253.993 66.5995 285.005C99.2164 313.7 154.253 347.922 231.162 347.922C314.474 347.922 372.502 308.264 406.505 274.99Z" fill="black"/>
</svg>
