<svg width="96" height="96" viewBox="0 0 96 96" fill="none" xmlns="http://www.w3.org/2000/svg">
<path fill-rule="evenodd" clip-rule="evenodd" d="M77.8258 18.1742C78.5581 18.9064 78.5581 20.0936 77.8258 20.8258L49.9016 48.75L77.8258 76.6742C78.5581 77.4064 78.5581 78.5936 77.8258 79.3258C77.0936 80.0581 75.9064 80.0581 75.1742 79.3258L47.25 51.4016L19.3258 79.3258C18.5936 80.0581 17.4064 80.0581 16.6742 79.3258C15.9419 78.5936 15.9419 77.4064 16.6742 76.6742L44.5984 48.75L16.6742 20.8258C15.9419 20.0936 15.9419 18.9064 16.6742 18.1742C17.4064 17.4419 18.5936 17.4419 19.3258 18.1742L47.25 46.0984L75.1742 18.1742C75.9064 17.4419 77.0936 17.4419 77.8258 18.1742Z" fill="#1A1A1A"/>
</svg>
